<?xml version="1.0" standalone="no"?>
<!DOCTYPE svg PUBLIC "-//W3C//DTD SVG 20010904//EN"
 "http://www.w3.org/TR/2001/REC-SVG-20010904/DTD/svg10.dtd">
<svg version="1.0" xmlns="http://www.w3.org/2000/svg"
 width="300.000000pt" height="300.000000pt" viewBox="0 0 300.000000 300.000000"
 preserveAspectRatio="xMidYMid meet">

<g transform="translate(0.000000,300.000000) scale(0.100000,-0.100000)"
fill="#000000" stroke="none">
<path d="M0 1500 l0 -1500 1500 0 1500 0 0 1500 0 1500 -1500 0 -1500 0 0
-1500z m1383 946 c67 -16 123 -50 167 -103 17 -21 66 -114 109 -208 43 -93 95
-206 116 -250 20 -44 53 -116 72 -160 20 -44 39 -84 43 -90 4 -5 38 -77 75
-160 38 -82 82 -179 100 -215 51 -107 52 -100 -9 -100 l-54 0 -22 53 c-12 28
-45 100 -73 160 l-51 107 -137 0 c-76 0 -140 3 -142 8 -3 4 -7 25 -8 47 l-4
40 116 -4 c64 -1 119 1 122 6 3 4 -17 55 -44 112 -27 57 -49 105 -49 107 0 1
-18 42 -41 91 -22 48 -49 106 -59 128 -118 259 -139 291 -215 326 -22 10 -62
19 -88 19 -134 0 -239 -143 -205 -278 10 -41 33 -69 198 -237 214 -218 225
-236 225 -370 -1 -130 -60 -227 -173 -282 -49 -24 -69 -28 -142 -28 -74 0 -92
4 -142 29 -68 34 -115 82 -148 151 -35 72 -35 198 0 270 13 28 33 60 45 73
l21 22 31 -32 32 -33 -31 -50 c-26 -42 -31 -59 -31 -115 0 -109 63 -187 174
-216 104 -27 207 24 252 125 27 59 26 133 -1 186 -11 22 -89 108 -172 190
-162 160 -210 222 -228 297 -18 69 -15 115 10 188 36 103 120 177 228 200 52
11 70 11 133 -4z m-582 -1485 c23 -19 24 -19 5 -40 -20 -22 -46 -28 -46 -11 0
6 -9 10 -20 10 -35 0 -22 -26 20 -39 52 -15 70 -35 70 -77 0 -81 -101 -115
-162 -54 -25 25 -28 33 -18 45 16 19 35 19 65 -1 25 -17 45 -12 45 11 0 7 -13
16 -30 20 -75 16 -104 83 -58 132 28 30 95 32 129 4z m201 -3 c8 -13 33 -65
57 -116 34 -74 40 -96 30 -108 -18 -22 -43 -16 -61 16 -15 26 -23 30 -57 30
-35 0 -43 -4 -56 -30 -17 -33 -32 -37 -59 -17 -16 11 -13 21 38 130 59 124 78
142 108 95z m215 -27 c21 -28 43 -50 48 -50 6 0 27 23 48 50 29 37 44 49 60
47 21 -3 22 -7 22 -128 l0 -125 -27 -3 -28 -3 0 65 c0 36 -4 66 -8 66 -4 0
-16 -13 -25 -30 -23 -38 -50 -38 -84 1 l-28 31 -5 -63 c-5 -60 -6 -64 -30 -64
l-25 0 -3 114 c-1 63 0 121 2 128 11 28 46 12 83 -36z m380 30 c79 -49 35
-171 -62 -171 -20 0 -25 -5 -25 -24 0 -30 -23 -50 -50 -41 -19 6 -20 14 -20
124 0 65 3 121 7 124 15 15 118 7 150 -12z m240 -91 c56 -114 61 -135 37 -144
-31 -12 -45 -6 -55 24 -10 27 -15 30 -54 30 -38 0 -46 -4 -57 -27 -16 -34 -61
-39 -66 -9 -4 20 84 214 103 228 24 18 43 -3 92 -102z m232 95 c40 -20 57 -66
43 -113 -9 -27 -9 -46 0 -75 10 -32 9 -40 -3 -48 -25 -16 -39 -10 -60 26 -27
44 -52 45 -64 3 -8 -26 -15 -33 -35 -33 l-25 0 -3 114 c-1 63 0 121 2 128 7
18 109 17 145 -2z m145 -1 c3 -9 6 -28 6 -42 1 -26 2 -26 40 16 41 45 64 51
84 20 9 -15 3 -25 -34 -63 l-44 -45 42 -43 c48 -49 52 -63 17 -79 -22 -10 -28
-7 -64 33 l-40 44 -1 -30 c0 -17 -5 -36 -12 -43 -17 -17 -45 -15 -52 4 -8 21
-8 229 1 237 12 13 51 7 57 -9z m-1779 -344 c3 -6 -4 -10 -17 -11 -23 0 -23 0
2 -11 25 -11 25 -11 3 -15 -29 -5 -30 -23 -2 -23 11 0 17 -4 14 -10 -3 -5 -17
-10 -31 -10 -22 0 -24 4 -24 45 0 41 2 45 24 45 14 0 28 -4 31 -10z m214 -4
c14 -17 5 -42 -17 -50 -9 -3 -23 -9 -29 -12 -9 -4 -13 6 -13 35 0 36 3 41 24
41 13 0 29 -6 35 -14z m141 0 c6 -8 10 -25 8 -38 -4 -32 -62 -39 -78 -9 -23
44 38 85 70 47z m137 -35 c2 -42 1 -43 -17 -26 -18 16 -20 16 -26 1 -10 -25
-24 -8 -24 28 0 40 7 48 40 44 22 -3 25 -8 27 -47z m138 39 c3 -5 -1 -10 -9
-10 -11 0 -16 -9 -16 -29 0 -17 -4 -33 -10 -36 -6 -4 -10 7 -10 25 0 18 -6 33
-15 36 -8 4 -15 10 -15 15 0 12 67 11 75 -1z m113 -33 c8 -21 11 -41 7 -45 -4
-4 -10 -1 -12 6 -6 15 -35 16 -51 0 -19 -19 -15 15 6 51 21 38 30 36 50 -12z
m92 14 c0 -21 6 -32 20 -36 26 -8 16 -25 -16 -25 -22 0 -24 4 -24 45 0 25 5
45 10 45 6 0 10 -13 10 -29z m245 19 c3 -5 -3 -10 -14 -10 -12 0 -21 -4 -21
-10 0 -5 7 -7 15 -4 9 4 15 0 15 -10 0 -9 -7 -16 -15 -16 -8 0 -15 -4 -15 -10
0 -5 -4 -10 -10 -10 -5 0 -10 18 -10 40 0 36 3 40 24 40 14 0 28 -4 31 -10z
m129 4 c22 -8 21 -61 -1 -72 -30 -16 -63 3 -63 37 0 36 26 50 64 35z m144 -7
c6 -7 7 -18 3 -26 -5 -7 -7 -23 -4 -35 4 -20 4 -20 -10 -3 -17 21 -27 22 -27
2 0 -8 -4 -15 -10 -15 -5 0 -10 20 -10 45 0 41 2 45 24 45 13 0 28 -6 34 -13z
m220 -15 c2 -14 -3 -24 -15 -29 -10 -4 -23 -14 -30 -22 -14 -18 -14 -18 -18
29 -4 45 1 52 33 48 19 -2 28 -10 30 -26z m98 -36 c9 -4 14 2 14 17 0 12 4 29
10 37 8 12 10 12 16 -3 9 -24 -3 -64 -22 -71 -26 -10 -54 12 -54 43 0 39 14
49 18 13 2 -17 10 -33 18 -36z m160 56 c6 -4 11 -23 10 -42 -1 -32 -4 -35 -31
-35 -28 0 -30 3 -33 43 -3 38 -1 42 20 42 13 0 28 -4 34 -8z m98 -35 c-4 -12
2 -20 18 -26 13 -6 21 -10 18 -11 -29 -8 -50 -8 -51 0 -2 13 -2 57 0 73 1 8 4
7 11 -3 5 -8 7 -23 4 -33z m126 -2 c0 -19 -4 -37 -10 -40 -10 -6 -12 -1 -12
40 0 41 2 46 12 40 6 -3 10 -21 10 -40z m128 27 c2 -8 -5 -11 -19 -10 -15 2
-24 -3 -27 -14 -3 -14 3 -18 22 -18 28 0 35 -17 12 -26 -40 -15 -74 44 -44 74
15 15 50 12 56 -6z"/>
<path d="M960 845 c0 -8 7 -15 15 -15 9 0 12 6 9 15 -4 8 -10 15 -15 15 -5 0
-9 -7 -9 -15z"/>
<path d="M1510 885 c0 -23 4 -26 28 -23 19 2 27 9 27 23 0 14 -8 21 -27 23
-24 3 -28 0 -28 -23z"/>
<path d="M1755 850 c-8 -13 -1 -24 14 -19 6 3 7 10 2 18 -6 10 -10 10 -16 1z"/>
<path d="M1990 885 c0 -23 4 -26 28 -23 19 2 27 9 27 23 0 14 -8 21 -27 23
-24 3 -28 0 -28 -23z"/>
<path d="M610 600 c0 -5 5 -10 10 -10 6 0 10 5 10 10 0 6 -4 10 -10 10 -5 0
-10 -4 -10 -10z"/>
<path d="M744 595 c-9 -23 14 -45 26 -25 5 8 8 19 7 24 -6 17 -27 18 -33 1z"/>
<path d="M885 600 c3 -5 10 -10 16 -10 5 0 9 5 9 10 0 6 -7 10 -16 10 -8 0
-12 -4 -9 -10z"/>
<path d="M1603 594 c-8 -21 13 -42 28 -27 13 13 5 43 -11 43 -6 0 -13 -7 -17
-16z"/>
<path d="M1750 600 c0 -5 5 -10 10 -10 6 0 10 5 10 10 0 6 -4 10 -10 10 -5 0
-10 -4 -10 -10z"/>
<path d="M1965 600 c-3 -5 1 -10 9 -10 9 0 16 5 16 10 0 6 -4 10 -9 10 -6 0
-13 -4 -16 -10z"/>
<path d="M2230 572 c0 -5 7 -9 15 -9 8 0 15 4 15 9 0 4 -7 8 -15 8 -8 0 -15
-4 -15 -8z"/>
</g>
</svg>
